<svg width="2614" height="454" viewBox="0 0 2614 454" fill="none" xmlns="http://www.w3.org/2000/svg">
<path d="M802.072 387.866H767.909V413.46H807.842V425H753.455V341.82H807.442V353.475H767.909V376.44H802.072V387.866ZM884.502 371.87L901.983 341.82H918.665L893.528 383.067L919.236 425H902.383L884.502 394.493L866.563 425H849.768L875.533 383.067L850.339 341.82H867.02L884.502 371.87ZM980.643 394.093V425H966.189V341.82H998.01C1007.3 341.82 1014.67 344.239 1020.12 349.076C1025.6 353.913 1028.35 360.311 1028.35 368.271C1028.35 376.421 1025.66 382.763 1020.29 387.295C1014.96 391.827 1007.47 394.093 997.839 394.093H980.643ZM980.643 382.496H998.01C1003.15 382.496 1007.07 381.296 1009.78 378.897C1012.48 376.459 1013.83 372.956 1013.83 368.385C1013.83 363.891 1012.46 360.311 1009.72 357.645C1006.98 354.941 1003.21 353.551 998.41 353.475H980.643V382.496ZM1125.91 387.866H1091.75V413.46H1131.68V425H1077.3V341.82H1131.29V353.475H1091.75V376.44H1125.91V387.866ZM1210.29 392.951H1194.18V425H1179.72V341.82H1208.97C1218.57 341.82 1225.98 343.972 1231.2 348.276C1236.41 352.58 1239.02 358.807 1239.02 366.957C1239.02 372.518 1237.67 377.183 1234.97 380.954C1232.3 384.686 1228.57 387.562 1223.77 389.58L1242.45 424.257V425H1226.97L1210.29 392.951ZM1194.18 381.354H1209.03C1213.91 381.354 1217.71 380.135 1220.46 377.697C1223.2 375.222 1224.57 371.851 1224.57 367.585C1224.57 363.129 1223.29 359.683 1220.74 357.245C1218.23 354.808 1214.46 353.551 1209.43 353.475H1194.18V381.354ZM1304.26 425H1289.86V341.82H1304.26V425ZM1406.91 387.866H1372.75V413.46H1412.68V425H1358.29V341.82H1412.28V353.475H1372.75V376.44H1406.91V387.866ZM1526.7 425H1512.25L1475.17 365.986V425H1460.72V341.82H1475.17L1512.36 401.063V341.82H1526.7V425ZM1643.53 397.921C1642.69 406.795 1639.41 413.727 1633.7 418.716C1627.99 423.667 1620.39 426.143 1610.91 426.143C1604.28 426.143 1598.43 424.581 1593.37 421.458C1588.34 418.297 1584.45 413.822 1581.71 408.033C1578.97 402.244 1577.54 395.521 1577.43 387.866V380.097C1577.43 372.251 1578.82 365.338 1581.6 359.359C1584.38 353.379 1588.36 348.771 1593.54 345.534C1598.76 342.296 1604.77 340.678 1611.59 340.678C1620.77 340.678 1628.16 343.172 1633.76 348.162C1639.36 353.151 1642.61 360.197 1643.53 369.299H1629.13C1628.44 363.32 1626.69 359.016 1623.87 356.388C1621.09 353.722 1617 352.389 1611.59 352.389C1605.31 352.389 1600.47 354.693 1597.08 359.302C1593.73 363.872 1592.01 370.594 1591.94 379.468V386.838C1591.94 395.826 1593.54 402.682 1596.74 407.404C1599.97 412.127 1604.7 414.488 1610.91 414.488C1616.58 414.488 1620.85 413.212 1623.7 410.661C1626.56 408.109 1628.37 403.862 1629.13 397.921H1643.53ZM1741.38 387.866H1707.22V413.46H1747.15V425H1692.76V341.82H1746.75V353.475H1707.22V376.44H1741.38V387.866ZM1917.27 353.475H1891.33V425H1876.99V353.475H1851.28V341.82H1917.27V353.475ZM2030.55 425H2016.15V388.038H1978.96V425H1964.51V341.82H1978.96V376.44H2016.15V341.82H2030.55V425ZM2132.57 387.866H2098.41V413.46H2138.34V425H2083.96V341.82H2137.94V353.475H2098.41V376.44H2132.57V387.866ZM2300.4 387.866H2266.24V413.46H2306.17V425H2251.79V341.82H2305.77V353.475H2266.24V376.44H2300.4V387.866ZM2368.67 394.093V425H2354.21V341.82H2386.03C2395.33 341.82 2402.7 344.239 2408.14 349.076C2413.63 353.913 2416.37 360.311 2416.37 368.271C2416.37 376.421 2413.68 382.763 2408.31 387.295C2402.98 391.827 2395.5 394.093 2385.86 394.093H2368.67ZM2368.67 382.496H2386.03C2391.17 382.496 2395.1 381.296 2397.8 378.897C2400.51 376.459 2401.86 372.956 2401.86 368.385C2401.86 363.891 2400.49 360.311 2397.74 357.645C2395 354.941 2391.23 353.551 2386.43 353.475H2368.67V382.496ZM2480.57 425H2466.18V341.82H2480.57V425ZM2598.08 397.921C2597.24 406.795 2593.97 413.727 2588.26 418.716C2582.54 423.667 2574.94 426.143 2565.46 426.143C2558.83 426.143 2552.99 424.581 2547.92 421.458C2542.89 418.297 2539.01 413.822 2536.27 408.033C2533.53 402.244 2532.1 395.521 2531.98 387.866V380.097C2531.98 372.251 2533.37 365.338 2536.15 359.359C2538.93 353.379 2542.91 348.771 2548.09 345.534C2553.31 342.296 2559.33 340.678 2566.15 340.678C2575.32 340.678 2582.71 343.172 2588.31 348.162C2593.91 353.151 2597.17 360.197 2598.08 369.299H2583.68C2583 363.32 2581.25 359.016 2578.43 356.388C2575.65 353.722 2571.55 352.389 2566.15 352.389C2559.86 352.389 2555.03 354.693 2551.64 359.302C2548.28 363.872 2546.57 370.594 2546.49 379.468V386.838C2546.49 395.826 2548.09 402.682 2551.29 407.404C2554.53 412.127 2559.25 414.488 2565.46 414.488C2571.14 414.488 2575.4 413.212 2578.26 410.661C2581.11 408.109 2582.92 403.862 2583.68 397.921H2598.08Z" fill="#1E93FF"/>
<path d="M756.869 232V54.2656H811.557C827.182 54.2656 841.138 57.8057 853.427 64.8857C865.797 71.8844 875.44 81.8942 882.357 94.915C889.275 107.854 892.733 122.584 892.733 139.104V147.283C892.733 163.803 889.315 178.493 882.479 191.351C875.725 204.209 866.163 214.178 853.793 221.258C841.423 228.338 827.466 231.919 811.923 232H756.869ZM793.49 83.9287V202.581H811.19C825.513 202.581 836.459 197.902 844.027 188.543C851.596 179.184 855.461 165.797 855.624 148.382V138.982C855.624 120.916 851.881 107.244 844.394 97.9668C836.907 88.6081 825.961 83.9287 811.557 83.9287H793.49ZM977.938 234.441C958.57 234.441 942.782 228.501 930.575 216.619C918.45 204.738 912.387 188.909 912.387 169.134V165.716C912.387 152.451 914.95 140.61 920.077 130.193C925.204 119.695 932.447 111.639 941.806 106.023C951.246 100.327 961.988 97.4785 974.032 97.4785C992.099 97.4785 1006.3 103.175 1016.63 114.568C1027.05 125.962 1032.26 142.116 1032.26 163.03V177.435H948.153C949.293 186.061 952.711 192.978 958.407 198.187C964.185 203.395 971.469 205.999 980.258 205.999C993.848 205.999 1004.47 201.076 1012.12 191.229L1029.45 210.638C1024.16 218.125 1017 223.984 1007.97 228.216C998.935 232.366 988.925 234.441 977.938 234.441ZM973.91 126.043C966.911 126.043 961.215 128.403 956.82 133.123C952.507 137.843 949.74 144.598 948.52 153.387H997.592V150.579C997.429 142.767 995.313 136.744 991.244 132.513C987.175 128.2 981.397 126.043 973.91 126.043ZM1123.93 195.501C1123.93 191.188 1121.78 187.811 1117.46 185.369C1113.23 182.846 1106.4 180.608 1096.96 178.655C1065.54 172.063 1049.84 158.717 1049.84 138.616C1049.84 126.897 1054.68 117.132 1064.36 109.319C1074.13 101.425 1086.87 97.4785 1102.57 97.4785C1119.34 97.4785 1132.72 101.425 1142.73 109.319C1152.82 117.213 1157.87 127.467 1157.87 140.081H1122.59C1122.59 135.035 1120.96 130.885 1117.71 127.63C1114.45 124.293 1109.37 122.625 1102.45 122.625C1096.51 122.625 1091.91 123.968 1088.66 126.653C1085.4 129.339 1083.77 132.757 1083.77 136.907C1083.77 140.813 1085.6 143.987 1089.27 146.429C1093.01 148.789 1099.28 150.864 1108.07 152.654C1116.85 154.363 1124.26 156.316 1130.28 158.514C1148.92 165.35 1158.24 177.19 1158.24 194.036C1158.24 206.08 1153.07 215.846 1142.73 223.333C1132.4 230.739 1119.05 234.441 1102.69 234.441C1091.63 234.441 1081.78 232.488 1073.15 228.582C1064.61 224.594 1057.89 219.183 1053.01 212.347C1048.13 205.429 1045.69 197.983 1045.69 190.008H1079.13C1079.46 196.274 1081.78 201.076 1086.09 204.412C1090.41 207.749 1096.18 209.417 1103.43 209.417C1110.18 209.417 1115.27 208.156 1118.69 205.633C1122.18 203.029 1123.93 199.651 1123.93 195.501ZM1218.29 232H1182.89V99.9199H1218.29V232ZM1180.82 65.7402C1180.82 60.4505 1182.57 56.0967 1186.07 52.6787C1189.65 49.2607 1194.49 47.5518 1200.59 47.5518C1206.62 47.5518 1211.42 49.2607 1215 52.6787C1218.58 56.0967 1220.37 60.4505 1220.37 65.7402C1220.37 71.1113 1218.54 75.5059 1214.88 78.9238C1211.3 82.3418 1206.54 84.0508 1200.59 84.0508C1194.65 84.0508 1189.85 82.3418 1186.19 78.9238C1182.61 75.5059 1180.82 71.1113 1180.82 65.7402ZM1242.34 164.983C1242.34 144.72 1247.14 128.403 1256.75 116.033C1266.43 103.663 1279.45 97.4785 1295.81 97.4785C1310.3 97.4785 1321.57 102.443 1329.62 112.371L1331.09 99.9199H1363.07V227.605C1363.07 239.161 1360.43 249.212 1355.14 257.757C1349.93 266.302 1342.56 272.812 1333.04 277.288C1323.52 281.764 1312.37 284.002 1299.59 284.002C1289.91 284.002 1280.47 282.049 1271.27 278.143C1262.08 274.318 1255.12 269.354 1250.4 263.25L1266.02 241.766C1274.81 251.613 1285.47 256.536 1298.01 256.536C1307.37 256.536 1314.65 254.013 1319.86 248.968C1325.07 244.004 1327.67 236.924 1327.67 227.728V220.647C1319.53 229.843 1308.83 234.441 1295.57 234.441C1279.7 234.441 1266.84 228.257 1256.99 215.887C1247.23 203.436 1242.34 186.956 1242.34 166.448V164.983ZM1277.62 167.547C1277.62 179.51 1280.02 188.909 1284.82 195.745C1289.62 202.5 1296.22 205.877 1304.6 205.877C1315.34 205.877 1323.03 201.849 1327.67 193.792V138.25C1322.95 130.193 1315.34 126.165 1304.84 126.165C1296.38 126.165 1289.71 129.624 1284.82 136.541C1280.02 143.458 1277.62 153.794 1277.62 167.547ZM1422.76 99.9199L1423.86 115.179C1433.3 103.379 1445.96 97.4785 1461.83 97.4785C1475.82 97.4785 1486.24 101.588 1493.08 109.808C1499.91 118.027 1503.41 130.315 1503.57 146.673V232H1468.29V147.527C1468.29 140.04 1466.67 134.629 1463.41 131.292C1460.16 127.874 1454.75 126.165 1447.18 126.165C1437.25 126.165 1429.8 130.397 1424.84 138.86V232H1389.56V99.9199H1422.76ZM1601.96 195.501C1601.96 191.188 1599.81 187.811 1595.49 185.369C1591.26 182.846 1584.42 180.608 1574.98 178.655C1543.57 172.063 1527.87 158.717 1527.87 138.616C1527.87 126.897 1532.71 117.132 1542.39 109.319C1552.16 101.425 1564.89 97.4785 1580.6 97.4785C1597.36 97.4785 1610.75 101.425 1620.76 109.319C1630.85 117.213 1635.9 127.467 1635.9 140.081H1600.62C1600.62 135.035 1598.99 130.885 1595.74 127.63C1592.48 124.293 1587.39 122.625 1580.48 122.625C1574.54 122.625 1569.94 123.968 1566.68 126.653C1563.43 129.339 1561.8 132.757 1561.8 136.907C1561.8 140.813 1563.63 143.987 1567.29 146.429C1571.04 148.789 1577.3 150.864 1586.09 152.654C1594.88 154.363 1602.29 156.316 1608.31 158.514C1626.95 165.35 1636.26 177.19 1636.26 194.036C1636.26 206.08 1631.1 215.846 1620.76 223.333C1610.43 230.739 1597.08 234.441 1580.72 234.441C1569.65 234.441 1559.81 232.488 1551.18 228.582C1542.64 224.594 1535.92 219.183 1531.04 212.347C1526.16 205.429 1523.71 197.983 1523.71 190.008H1557.16C1557.49 196.274 1559.81 201.076 1564.12 204.412C1568.43 207.749 1574.21 209.417 1581.45 209.417C1588.21 209.417 1593.29 208.156 1596.71 205.633C1600.21 203.029 1601.96 199.651 1601.96 195.501Z" fill="#174AA4"/>
<path d="M1766.63 149.847H1689.61V212.835H1779.09V232H1666.17V54.2656H1777.87V73.5527H1689.61V130.682H1766.63V149.847ZM1826.08 99.9199L1826.82 116.521C1836.91 103.826 1850.09 97.4785 1866.37 97.4785C1894.28 97.4785 1908.36 113.226 1908.6 144.72V232H1886.02V144.598C1885.94 135.076 1883.74 128.037 1879.43 123.479C1875.2 118.922 1868.56 116.644 1859.53 116.644C1852.21 116.644 1845.78 118.597 1840.24 122.503C1834.71 126.409 1830.4 131.536 1827.3 137.884V232H1804.72V99.9199H1826.08ZM1995.64 216.009C2003.7 216.009 2010.73 213.567 2016.76 208.685C2022.78 203.802 2026.12 197.698 2026.77 190.374H2048.13C2047.72 197.942 2045.12 205.145 2040.32 211.98C2035.51 218.816 2029.09 224.269 2021.03 228.338C2013.05 232.407 2004.59 234.441 1995.64 234.441C1977.65 234.441 1963.33 228.46 1952.67 216.497C1942.09 204.453 1936.8 188.014 1936.8 167.181V163.396C1936.8 150.538 1939.16 139.104 1943.88 129.095C1948.6 119.085 1955.36 111.313 1964.14 105.779C1973.01 100.245 1983.47 97.4785 1995.52 97.4785C2010.33 97.4785 2022.62 101.914 2032.38 110.784C2042.23 119.655 2047.48 131.17 2048.13 145.33H2026.77C2026.12 136.785 2022.86 129.786 2017 124.334C2011.22 118.8 2004.06 116.033 1995.52 116.033C1984.04 116.033 1975.13 120.184 1968.78 128.484C1962.52 136.704 1959.38 148.626 1959.38 164.251V168.523C1959.38 183.742 1962.52 195.46 1968.78 203.68C1975.05 211.899 1984 216.009 1995.64 216.009ZM2067.54 164.739C2067.54 151.8 2070.06 140.162 2075.11 129.827C2080.23 119.492 2087.31 111.517 2096.35 105.901C2105.46 100.286 2115.84 97.4785 2127.47 97.4785C2145.46 97.4785 2159.99 103.704 2171.05 116.155C2182.2 128.606 2187.78 145.167 2187.78 165.838V167.425C2187.78 180.283 2185.3 191.839 2180.33 202.093C2175.45 212.265 2168.41 220.2 2159.21 225.896C2150.1 231.593 2139.6 234.441 2127.72 234.441C2109.82 234.441 2095.29 228.216 2084.14 215.765C2073.07 203.313 2067.54 186.834 2067.54 166.326V164.739ZM2090.24 167.425C2090.24 182.073 2093.62 193.833 2100.38 202.703C2107.21 211.574 2116.33 216.009 2127.72 216.009C2139.19 216.009 2148.31 211.533 2155.06 202.581C2161.82 193.548 2165.19 180.934 2165.19 164.739C2165.19 150.254 2161.74 138.535 2154.82 129.583C2147.98 120.55 2138.87 116.033 2127.47 116.033C2116.33 116.033 2107.33 120.468 2100.5 129.339C2093.66 138.209 2090.24 150.905 2090.24 167.425ZM2210.6 164.861C2210.6 144.598 2215.41 128.322 2225.01 116.033C2234.61 103.663 2247.18 97.4785 2262.73 97.4785C2278.19 97.4785 2290.44 102.768 2299.47 113.348V44.5H2322.05V232H2301.3L2300.2 217.84C2291.17 228.908 2278.6 234.441 2262.48 234.441C2247.18 234.441 2234.69 228.175 2225.01 215.643C2215.41 203.11 2210.6 186.753 2210.6 166.57V164.861ZM2233.19 167.425C2233.19 182.399 2236.28 194.118 2242.46 202.581C2248.65 211.045 2257.19 215.276 2268.1 215.276C2282.42 215.276 2292.88 208.847 2299.47 195.989V135.32C2292.72 122.869 2282.34 116.644 2268.34 116.644C2257.28 116.644 2248.65 120.916 2242.46 129.461C2236.28 138.006 2233.19 150.66 2233.19 167.425ZM2412.02 234.441C2394.12 234.441 2379.55 228.582 2368.32 216.863C2357.09 205.063 2351.47 189.316 2351.47 169.622V165.472C2351.47 152.369 2353.96 140.691 2358.92 130.438C2363.97 120.102 2370.96 112.046 2379.92 106.268C2388.95 100.408 2398.71 97.4785 2409.21 97.4785C2426.38 97.4785 2439.73 103.134 2449.25 114.446C2458.77 125.758 2463.53 141.953 2463.53 163.03V172.43H2374.06C2374.38 185.451 2378.17 195.989 2385.41 204.046C2392.73 212.021 2402.01 216.009 2413.24 216.009C2421.22 216.009 2427.97 214.381 2433.5 211.126C2439.04 207.871 2443.88 203.558 2448.03 198.187L2461.83 208.929C2450.76 225.937 2434.16 234.441 2412.02 234.441ZM2409.21 116.033C2400.1 116.033 2392.45 119.37 2386.26 126.043C2380.08 132.635 2376.25 141.912 2374.79 153.875H2440.95V152.166C2440.3 140.691 2437.21 131.821 2431.67 125.555C2426.14 119.207 2418.65 116.033 2409.21 116.033ZM2484.29 164.861C2484.29 144.598 2489.09 128.322 2498.69 116.033C2508.29 103.663 2520.87 97.4785 2536.41 97.4785C2551.87 97.4785 2564.12 102.768 2573.15 113.348V44.5H2595.74V232H2574.98L2573.89 217.84C2564.85 228.908 2552.28 234.441 2536.17 234.441C2520.87 234.441 2508.37 228.175 2498.69 215.643C2489.09 203.11 2484.29 186.753 2484.29 166.57V164.861ZM2506.87 167.425C2506.87 182.399 2509.96 194.118 2516.15 202.581C2522.33 211.045 2530.88 215.276 2541.78 215.276C2556.1 215.276 2566.56 208.847 2573.15 195.989V135.32C2566.4 122.869 2556.02 116.644 2542.03 116.644C2530.96 116.644 2522.33 120.916 2516.15 129.461C2509.96 138.006 2506.87 150.66 2506.87 167.425Z" fill="#1E93FF"/>
<path d="M253.318 250.381C253.318 320.204 196.611 376.807 126.659 376.807L4.82823 376.807C2.16171 376.807 6.4604e-05 374.65 6.39047e-05 371.988L0 128.774C-6.99344e-07 126.112 2.16164 123.954 4.82816 123.954L126.659 123.954C196.611 123.954 253.318 180.557 253.318 250.381Z" fill="url(#paint0_linear)"/>
<path d="M319.802 282.028C316.816 282.028 314.55 279.35 314.955 276.397C316.124 267.892 316.728 259.207 316.728 250.381C316.728 241.555 316.124 232.87 314.955 224.365C314.55 221.412 316.816 218.734 319.802 218.734L470.263 218.734C472.93 218.734 475.091 220.892 475.091 223.553V277.208C475.091 279.87 472.93 282.028 470.263 282.028L319.802 282.028Z" fill="url(#paint1_linear)"/>
<path d="M222.7 414.134C218.177 416.783 219.993 424.679 225.238 424.679L565.217 424.679C567.884 424.679 570.045 422.521 570.045 419.86V366.205C570.045 363.543 567.884 361.385 565.217 361.385L283.283 361.386C281.733 361.386 280.28 362.131 279.356 363.373C264.118 383.857 244.841 401.168 222.7 414.134Z" fill="url(#paint2_linear)"/>
<path d="M279.589 137.702C280.512 138.949 281.968 139.698 283.521 139.698L565.217 139.697C567.884 139.697 570.045 137.54 570.045 134.878V81.2231C570.045 78.5615 567.884 76.4038 565.217 76.4038L225.73 76.4039C220.497 76.4039 218.676 84.2541 223.182 86.9106C245.233 99.9111 264.424 117.23 279.589 137.702Z" fill="url(#paint3_linear)"/>
<path d="M657.544 103.853C660.819 105.697 660.819 110.404 657.544 112.248L609.192 139.473C605.973 141.285 601.992 138.964 601.992 135.275V80.8263C601.992 77.1379 605.973 74.8166 609.192 76.6288L657.544 103.853Z" fill="url(#paint4_linear)"/>
<defs>
<linearGradient id="paint0_linear" x1="2.58665e-06" y1="250" x2="660" y2="250" gradientUnits="userSpaceOnUse">
<stop stop-color="#142B7D"/>
<stop offset="1" stop-color="#1E93FF"/>
</linearGradient>
<linearGradient id="paint1_linear" x1="2.58665e-06" y1="250" x2="660" y2="250" gradientUnits="userSpaceOnUse">
<stop stop-color="#142B7D"/>
<stop offset="1" stop-color="#1E93FF"/>
</linearGradient>
<linearGradient id="paint2_linear" x1="2.58665e-06" y1="250" x2="660" y2="250" gradientUnits="userSpaceOnUse">
<stop stop-color="#142B7D"/>
<stop offset="1" stop-color="#1E93FF"/>
</linearGradient>
<linearGradient id="paint3_linear" x1="2.58665e-06" y1="250" x2="660" y2="250" gradientUnits="userSpaceOnUse">
<stop stop-color="#142B7D"/>
<stop offset="1" stop-color="#1E93FF"/>
</linearGradient>
<linearGradient id="paint4_linear" x1="2.58665e-06" y1="250" x2="660" y2="250" gradientUnits="userSpaceOnUse">
<stop stop-color="#142B7D"/>
<stop offset="1" stop-color="#1E93FF"/>
</linearGradient>
</defs>
</svg>
